<?xml version="1.0" encoding="UTF-8"?>
<svg id="Layer_1" data-name="Layer 1" xmlns="http://www.w3.org/2000/svg" version="1.1" viewBox="0 245 1040 1040">
  <defs>
    <style>
      .cls-1 {
        fill: #000;
      }
      .cls-1, .cls-2, .cls-3 {
        stroke-width: 0px;
      }
      .cls-2, .cls-3 {
        fill: #c51733;
      }
    </style>
  </defs>
  <g>
    <path class="cls-1" d="M208.5,757.77h-26.48s0,16.01,0,16.01h23.77c5.66,0,12.32-.87,12.32-8.01,0-5.66-4.68-8.01-9.61-8.01M216.51,825.03l-17.98-31.66h-16.51s0,31.66,0,31.66h-31.29v-86.96h65.16c11.95,0,23.16,1.73,29.56,13.18,2.46,4.31,3.7,9.36,3.7,14.41,0,9.85-4.43,18.47-13.67,22.66-1.97.86-4.19,1.35-6.28,1.97l21.68,34.73h-34.37Z"/>
    <path class="cls-1" d="M299.77,795.84h0c-4.93.24-16.75.12-16.75,7.27,0,5.17,6.04,6.53,10.1,6.53,6.16,0,14.91-2.59,18.73-7.76,1.72-2.22,2.22-4.06,2.83-6.78-4.93.25-9.98.49-14.91.74M315.78,825.03c-.62-2.09-.99-4.19-1.11-6.28-10.35,4.56-20.82,8.25-32.28,8.25-13.3,0-28.82-5.29-28.82-21.06,0-6.53,2.58-11.45,7.88-15.27,10.1-7.27,40.28-7.02,52.72-7.27v-.61c0-7.64-8.13-8.62-14.04-8.62-4.68,0-11.21.49-14.78,3.94-.49.49-.86,1.23-1.1,1.97h-27.96c.99-5.91,2.83-10.72,7.52-14.78,7.88-6.78,25.25-7.76,35.35-7.76,10.96,0,31.29.25,39.05,9.37,3.57,4.19,4.19,9.23,4.19,14.53v34.12c0,4.44.37,6.41,3.57,9.49h-30.18Z"/>
    <path class="cls-1" d="M413.94,825.03v-32.27c0-9.36-4.93-15.64-14.78-15.64-9.98,0-15.03,7.14-15.03,16.38v31.53h-29.31v-65.28h29.31v8.25c8.87-6.65,17.12-9.49,28.33-9.49,6.9,0,13.3.74,19.34,4.19,11.45,6.53,11.33,16.14,11.33,28.09v34.24h-29.19Z"/>
    <path class="cls-1" d="M499.79,827.12c-22.17,0-48.04-8.12-48.04-34.6,0-7.52,2.58-14.41,7.27-20.21,9.98-12.44,27.71-15.52,42.74-15.52,17.74,0,38.31,5.54,44.47,24.27l-28.7,2.59c-1.85-6.41-10.1-9.36-16.14-9.36-10.84,0-18.73,6.78-18.73,17.86,0,11.34,8.38,17.86,19.22,17.86,7.27,0,14.41-3.2,17.12-10.35l28.82.99c-5.66,21.8-28.58,26.47-48.04,26.47"/>
    <path class="cls-1" d="M597.34,795.84h0c-4.93.24-16.75.12-16.75,7.27,0,5.17,6.03,6.53,10.1,6.53,6.16,0,14.91-2.59,18.72-7.76,1.72-2.22,2.22-4.06,2.83-6.78-4.93.25-9.98.49-14.9.74M613.35,825.03c-.61-2.09-.98-4.19-1.11-6.28-10.35,4.56-20.82,8.25-32.27,8.25-13.31,0-28.82-5.29-28.82-21.06,0-6.53,2.58-11.45,7.88-15.27,10.1-7.27,40.29-7.02,52.72-7.27v-.61c0-7.64-8.13-8.62-14.04-8.62-4.68,0-11.21.49-14.78,3.94-.49.49-.86,1.23-1.11,1.97h-27.96c.99-5.91,2.83-10.72,7.51-14.78,7.89-6.78,25.25-7.76,35.36-7.76,10.96,0,31.28.25,39.05,9.37,3.57,4.19,4.18,9.23,4.18,14.53v34.12c0,4.44.37,6.41,3.57,9.49h-30.18Z"/>
    <path class="cls-2" d="M647.71,840.57c-.81-1.2-1.48-2.36-2.04-3.48H151.42s0,13.07,0,13.07h506.11c-3.76-2.47-7.17-5.59-9.82-9.59"/>
    <path class="cls-2" d="M939.29,837.08h-196.84c-.68,1.38-1.5,2.76-2.47,4.11-2.61,3.69-5.95,6.61-9.65,8.96h208.96s0-13.07,0-13.07Z"/>
    <path class="cls-1" d="M694.02,802.12h0c-7.27,0-15.39-4.06-15.39-12.32s6.77-12.44,14.16-12.44c7.64,0,16.01,3.08,16.01,12.07,0,8.38-7.14,12.69-14.78,12.69M692.54,850.88c13.3,0,32.39-2.59,40.77-14.4,3.69-5.18,4.43-10.72,4.43-16.87v-59.86s-29.07,0-29.07,0v5.91c-7.52-5.05-15.03-7.15-24.02-7.15-19.46,0-35.85,10.96-35.85,31.9,0,19.59,16.26,30.3,34.49,30.3,8.99,0,17.74-1.84,25.38-6.65,0,2.22.12,4.43.12,6.65,0,10.35-5.54,13.55-15.52,13.55-6.04,0-13.31-2.22-13.31-9.48h-29.44c.74,4.43,1.35,7.39,3.94,11.2,7.76,11.7,25.13,14.9,38.06,14.9Z"/>
    <path class="cls-1" d="M809.8,825.03v-8.99c-8.13,7.63-17.99,10.47-28.95,10.47-17.61,0-30.79-8.37-30.79-27.1v-39.66h29.19v32.51c0,6.29,1.11,11.09,7.39,13.8,2.21.99,4.68,1.35,7.02,1.35,2.59,0,5.79-.61,8.13-1.84,6.16-3.33,7.14-8.63,7.14-15.16v-30.67h29.07v65.28h-28.21Z"/>
    <path class="cls-1" d="M892.43,795.84h0c-4.93.24-16.75.12-16.75,7.27,0,5.17,6.03,6.53,10.1,6.53,6.16,0,14.9-2.59,18.72-7.76,1.72-2.22,2.21-4.06,2.83-6.78-4.92.25-9.98.49-14.9.74M908.45,825.03c-.61-2.09-.99-4.19-1.11-6.28-10.35,4.56-20.81,8.25-32.28,8.25-13.3,0-28.82-5.29-28.82-21.06,0-6.53,2.59-11.45,7.88-15.27,10.1-7.27,40.28-7.02,52.72-7.27v-.61c0-7.64-8.13-8.62-14.04-8.62-4.68,0-11.21.49-14.78,3.94-.49.49-.86,1.23-1.11,1.97h-27.97c.99-5.91,2.84-10.72,7.52-14.78,7.88-6.78,25.25-7.76,35.35-7.76,10.96,0,31.29.25,39.05,9.37,3.57,4.19,4.19,9.23,4.19,14.53v34.12c0,4.44.37,6.41,3.57,9.49h-30.18Z"/>
    <path class="cls-1" d="M440.48,882.16c-6.37,0-12.08,2.63-15.3,4.76l-1.17-3.95h-8.93s0,37.55,0,37.55h11.05s0-25.69,0-25.69c2.34-1.68,6-3.51,10.76-3.51,4.9,0,6.51,2.63,6.51,7.25v21.96s11.05,0,11.05,0v-23.35c0-11.49-5.71-15-13.98-15M386.57,891.31c6,0,10.25,3.73,10.25,10.47,0,5.93-3.88,10.47-9.81,10.47-6.22,0-10.25-4.39-10.25-10.47,0-6.51,4.03-10.47,9.81-10.47ZM386.87,882.16c-12.74,0-21.59,6.81-21.59,19.62,0,12.88,8.86,19.62,21.59,19.62,12.66,0,21.45-6.81,21.45-19.62,0-12.74-8.78-19.62-21.45-19.62ZM390.23,877.25l7.39-10.61h-10.47s-5.42,10.61-5.42,10.61h8.49ZM358.51,920.51v-37.55s-11.05,0-11.05,0v37.55s11.05,0,11.05,0ZM359.17,877.62v-9.44s-12.37,0-12.37,0v9.44s12.37,0,12.37,0ZM324.3,882.16c-10.76,0-18.52,3.22-18.52,11.42,0,4.83,1.76,9.15,10.03,10.83l8.2,1.68c5.05,1.02,5.71,2.05,5.71,3.29,0,2.05-1.68,3.07-8.49,3.07-5.12,0-12.08-1.68-14.71-2.56v9.08c3.07,1.02,10.03,2.42,15,2.42,13.98,0,19.18-5.27,19.18-12.37,0-5.64-3.15-9.22-11.05-10.98l-7.61-1.68c-4.54-1.02-5.56-1.1-5.56-2.78,0-2.49,5.27-2.71,8.56-2.71,3.95,0,8.12.73,13.25,2.49v-8.78c-3.15-1.32-8.05-2.42-13.98-2.42ZM299.01,920.51v-37.55s-11.05,0-11.05,0v37.55s11.05,0,11.05,0ZM299.67,877.62v-9.44s-12.37,0-12.37,0v9.44s12.37,0,12.37,0ZM266.92,882.16c-11.13,0-21.08,6.59-21.08,19.76,0,13.54,9.95,19.47,22.69,19.47,3.44,0,8.2-.66,12.3-1.54v-9.3c-3,.95-6.51,1.68-11.86,1.68-5.27,0-11.64-3-11.64-10.61,0-7.17,5.42-10.32,11.56-10.32,5.12,0,8.71,1.02,11.93,2.42v-9.44c-4.32-1.46-8.27-2.12-13.91-2.12ZM213.02,898.92c.59-5.64,4.1-8.12,9.51-8.12,4.68,0,7.32,3.07,7.39,8.12h-16.91ZM241.27,905.8v-5.12c0-11.93-6.44-18.52-18.81-18.52-10.76,0-20.86,6.08-20.86,19.32,0,13.83,8.71,19.91,22.18,19.91,5.49,0,11.13-1.32,15.52-2.71v-8.64c-4.03,1.24-9.88,2.56-15.22,2.56-4.24,0-10.39-1.17-11.12-6.81h28.32ZM162.85,882.52h7.25c8.93,0,14.35,4.98,14.35,13.98,0,10.03-5.27,14.42-14.78,14.42h-6.81v-28.4ZM151.5,872.94v47.57s18.3,0,18.3,0c13.91,0,26.5-6.22,26.5-24.23,0-18.44-12.74-23.35-25.84-23.35h-18.96Z"/>
    <path class="cls-2" d="M939.03,882.52v-9.59s-36.96,0-36.96,0v47.57s37.47,0,37.47,0v-9.59s-26.13,0-26.13,0v-10.1h23.2s0-9.22,0-9.22h-23.2v-9.08h25.62ZM896.03,882.52v-9.59s-42.67,0-42.67,0v9.59s15.66,0,15.66,0v37.99s11.34,0,11.34,0v-37.99h15.66ZM847.32,920.51v-47.5s-11.13,0-11.13,0v29.79s-20.35-29.79-20.35-29.79h-13.1s0,47.5,0,47.5h11.13s0-32.06,0-32.06l22.18,32.06h11.27ZM794.37,882.52v-9.59s-36.96,0-36.96,0v47.57s37.47,0,37.47,0v-9.59s-26.13,0-26.13,0v-10.1h23.2s0-9.22,0-9.22h-23.2v-9.08h25.62ZM731.91,872.06c-14.49,0-27.89,7.17-27.89,24.52,0,17.49,12.59,24.67,25.98,24.67,9.59,0,15.22-1.61,18.44-2.42v-23.49s-10.91,0-10.91,0v15.08c-1.83.59-4.68.95-6.44.95-7.61,0-15.22-3.81-15.22-14.71,0-9.37,6-14.64,16.98-14.64,6.37,0,9.81,1.17,13.32,2.2v-10.1c-4.54-1.46-10.61-2.05-14.27-2.05ZM696.52,920.51v-47.57s-11.34,0-11.34,0v47.57s11.34,0,11.34,0ZM657.84,910.92v-37.99s-11.34,0-11.34,0v47.57s33.74,0,33.74,0v-9.59s-22.4,0-22.4,0ZM638.12,882.52v-9.59s-36.96,0-36.96,0v47.57s37.47,0,37.47,0v-9.59s-26.13,0-26.13,0v-10.1h23.2s0-9.22,0-9.22h-23.2v-9.08h25.62ZM595.12,882.52v-9.59s-42.67,0-42.67,0v9.59s15.66,0,15.66,0v37.99s11.34,0,11.34,0v-37.99h15.66ZM546.42,920.51v-47.5s-11.13,0-11.13,0v29.79s-20.35-29.79-20.35-29.79h-13.1s0,47.5,0,47.5h11.13s0-32.06,0-32.06l22.18,32.06h11.27ZM492.15,920.51v-47.57s-11.34,0-11.34,0v47.57s11.34,0,11.34,0Z"/>
    <path class="cls-3" d="M623.81,628.07h-81.96c-2.01,0-3.64,1.63-3.64,3.64v6.3c0,1.98,1.58,3.58,3.54,3.64,0,.02,67.65,6.37,68,6.62,12,2.46,21.02,13.8,21.02,26.53v12.16c0,15.34-7.85,28.17-34.41,28.17h-87.78c-1.27,0-2.31-1.03-2.31-2.31v-20.34c0-1.27,1.04-2.31,2.31-2.31h86.29c1.97-.05,3.55-1.66,3.55-3.64v-8.57c0-2.01-1.63-3.64-3.64-3.64l-62.74-5.36c-.17-.01-.33-.04-.48-.09-14.05-.55-25.29-10.67-25.29-24.86v-12.35c0-15.34,12.25-27.82,27.51-28.16h90.03c1.28,0,2.32,1.03,2.32,2.31v19.96c0,1.27-1.04,2.3-2.32,2.3M481.92,628.07h-81.96c-2.01,0-3.64,1.63-3.64,3.64v6.3c0,1.98,1.58,3.58,3.54,3.64,0,.02,67.65,6.37,68,6.62,12,2.46,21.02,13.8,21.02,26.53v12.16c0,15.34-7.85,28.17-34.41,28.17h-87.78c-1.28,0-2.32-1.03-2.32-2.31v-20.34c0-1.27,1.04-2.31,2.32-2.31h86.29c1.96-.05,3.54-1.66,3.54-3.64v-8.57c0-2.01-1.63-3.64-3.64-3.64l-62.74-5.36c-.16-.01-.32-.04-.47-.09-14.06-.55-25.29-10.67-25.29-24.86v-12.35c0-15.34,12.26-27.82,27.51-28.16h90.03c1.28,0,2.32,1.03,2.32,2.31v19.96c0,1.27-1.04,2.3-2.32,2.3ZM746.9,692.35h-65.77s-8.94,19.87-8.94,19.87c-.68,1.5-2.45,2.72-3.96,2.72h-27.62c-1.51,0-2.18-1.22-1.51-2.72l47.75-106.16c.68-1.51,2.45-2.73,3.96-2.73h46.39c1.51,0,3.28,1.22,3.96,2.73l47.76,106.16c.68,1.5,0,2.72-1.51,2.72h-27.62c-1.51,0-3.28-1.22-3.96-2.72l-8.94-19.87ZM691.36,669.6h45.3s-18.49-41.1-18.49-41.1h-8.33s-18.48,41.1-18.48,41.1ZM808.36,603.51h0l41.89-.02c1.5,0,7.54.65,11.07,6.11l51.9,80.38v-83.75c0-1.51,1.23-2.73,2.73-2.73h23.66c1.51,0,2.74,1.22,2.74,2.73v106.16c0,1.51-1.22,2.73-2.74,2.73l-40.44-.02c-1.51,0-9.69.02-13.39-6.63l-50.31-78.28v82.21c0,1.51-1.22,2.73-2.73,2.73h-24.39c-1.51,0-2.73-1.22-2.73-2.73v-106.16c0-1.51,1.23-2.73,2.73-2.73ZM153.28,603.51h41.52c1.51,0,7.54.63,11.07,6.09l51.9,80.38v-83.75c0-1.51,1.22-2.73,2.73-2.73h23.66c1.5,0,2.73,1.22,2.73,2.73v106.16c0,1.51-1.22,2.73-2.73,2.73l-40.44.04c-1.51,0-9.7-.03-13.39-6.69l-50.3-78.28v82.21c0,1.51-1.22,2.73-2.73,2.73h-24.02c-1.51,0-2.73-1.22-2.73-2.73v-106.16c0-1.51,1.22-2.73,2.73-2.73ZM310.9,602.6h27.62c1.51,0,2.73,1.22,2.73,2.73v106.16c0,1.51-1.22,2.73-2.73,2.73h-27.62c-1.51,0-2.73-1.22-2.73-2.73v-106.16c0-1.5,1.22-2.73,2.73-2.73Z"/>
  </g>
</svg>